<?xml version="1.0" standalone="no"?>
<!DOCTYPE svg PUBLIC "-//W3C//DTD SVG 20010904//EN"
 "http://www.w3.org/TR/2001/REC-SVG-20010904/DTD/svg10.dtd">
<svg version="1.0" xmlns="http://www.w3.org/2000/svg"
 width="2048.000000pt" height="2048.000000pt" viewBox="0 0 2048.000000 2048.000000"
 preserveAspectRatio="xMidYMid meet">

<g transform="translate(0.000000,2048.000000) scale(0.100000,-0.100000)"
fill="#000000" stroke="none">
<path d="M10078 20470 c-1098 -45 -2128 -247 -3133 -616 -2024 -741 -3776
-2122 -4980 -3924 -213 -318 -372 -587 -594 -1001 l-51 -97 1695 -1316 c932
-724 1697 -1316 1699 -1316 2 0 7 12 11 28 14 57 136 373 199 515 690 1554
1960 2757 3514 3328 860 316 1784 424 2727 318 670 -75 1258 -246 1850 -539
478 -236 875 -507 1268 -864 l99 -89 1456 1457 1457 1457 -60 55 c-1622 1490
-3591 2364 -5770 2563 -440 40 -1001 57 -1387 41z"/>
<path d="M10460 10020 l0 -1920 2760 0 c2326 0 2760 -2 2760 -14 0 -49 -96
-416 -155 -591 -129 -384 -336 -807 -552 -1125 -324 -480 -757 -920 -1242
-1264 l-91 -64 146 -114 c81 -62 163 -126 184 -143 21 -16 60 -47 86 -67 36
-28 1568 -1218 1934 -1503 25 -19 245 -190 489 -380 l443 -345 124 116 c186
175 462 471 660 710 990 1189 1676 2645 2009 4264 274 1336 316 2763 119 4105
-13 94 -27 189 -31 213 l-6 42 -4818 0 -4819 0 0 -1920z"/>
</g>
</svg>
